<?xml version="1.0" ?>
<!-- download from https://www.iconfinder.com/icons/393284/rss_icon -->
<svg height="512px" id="Layer_1" style="enable-background:new 0 0 512 512;" version="1.1" viewBox="0 0 512 512" width="512px" xml:space="preserve" xmlns="http://www.w3.org/2000/svg" xmlns:cc="http://creativecommons.org/ns#" xmlns:dc="http://purl.org/dc/elements/1.1/" xmlns:inkscape="http://www.inkscape.org/namespaces/inkscape" xmlns:rdf="http://www.w3.org/1999/02/22-rdf-syntax-ns#" xmlns:sodipodi="http://sodipodi.sourceforge.net/DTD/sodipodi-0.dtd" xmlns:svg="http://www.w3.org/2000/svg">
<style>
    :root {
        --bg-color: transparent;
    }
</style>
<g id="g2996"><g id="g2987" class="fill" style="fill:var(--bg-color);fill-opacity:1"><path d="m 511.672,255.92999 c 0,141.3849 -114.61511,256 -256,256 -141.3849,0 -256.00000293,-114.6151 -256.00000293,-256 C -0.32800293,114.5451 114.2871,-0.07000732 255.672,-0.07000732 c 141.38489,0 256,114.61510732 256,255.99999732 z" id="path2989" class="fill" style="fill:var(--bg-color);fill-opacity:1"/></g><path d="m 152.62184,255.4137 c 29.32321,0 56.88893,11.45453 77.60466,32.2887 20.75364,20.83416 32.17974,48.58463 32.17974,78.12575 h 45.18807 c 0,-85.80474 -69.52302,-155.60725 -154.97247,-155.60725 v 45.1928 z m 0.0711,-80.11063 c 104.50717,0 189.53501,85.49208 189.53501,190.58193 h 45.18807 c 0,-130.01221 -105.30302,-235.77 -234.72308,-235.77 v 45.18807 z m 62.48828,159.01329 c 0,17.28127 -14.01735,31.29862 -31.29862,31.29862 -17.28127,0 -31.29862,-14.01261 -31.29862,-31.29862 0,-17.29075 14.01261,-31.29862 31.29388,-31.29862 17.28128,0 31.30336,14.00787 31.30336,31.29862 z" id="path3844" style="fill:#ffffff"/></g><g id="Layer_1_1_"/></svg>